<?xml version="1.0" encoding="UTF-8" standalone="no"?>
<svg
   xmlns:dc="http://purl.org/dc/elements/1.1/"
   xmlns:cc="http://creativecommons.org/ns#"
   xmlns:rdf="http://www.w3.org/1999/02/22-rdf-syntax-ns#"
   xmlns:svg="http://www.w3.org/2000/svg"
   xmlns="http://www.w3.org/2000/svg"
   version="1.1"
   id="svg424"
   width="85"
   height="65"
   viewBox="0 0 85 65">
  <metadata
     id="metadata430">
    <rdf:RDF>
      <cc:Work
         rdf:about="">
        <dc:format>image/svg+xml</dc:format>
        <dc:type
           rdf:resource="http://purl.org/dc/dcmitype/StillImage" />
        <dc:title></dc:title>
      </cc:Work>
    </rdf:RDF>
  </metadata>
  <defs
     id="defs428" />
  <g
     id="g432">
    <g
       id="g1417"
       transform="translate(0.5778883,-0.45099995)">
      <rect
         style="fill:#ffd43b;fill-opacity:1;fill-rule:evenodd;stroke-width:0.999942"
         id="rect468"
         width="6.3070221"
         height="36.799999"
         x="18.049"
         y="2.7539999"
         ry="3.0733173" />
      <rect
         style="fill:#ffd43b;fill-opacity:1;fill-rule:evenodd;stroke-width:0.999942"
         id="rect470"
         width="6.3070221"
         height="36.799999"
         x="59.487999"
         y="2.7539999"
         ry="3.0733173" />
      <rect
         style="fill:#ffd43b;fill-opacity:1;fill-rule:evenodd;stroke-width:1.01465"
         id="rect472"
         width="6.307024"
         height="30"
         x="10.742"
         y="6.1535001"
         ry="3.1643822" />
      <rect
         style="fill:#ffd43b;fill-opacity:1;fill-rule:evenodd;stroke-width:1.01465"
         id="rect474"
         width="6.307024"
         height="30"
         x="66.794998"
         y="6.1539998"
         ry="3.1643822" />
      <rect
         style="fill:#ffd43b;fill-opacity:1;fill-rule:evenodd"
         id="rect476"
         width="6.3070221"
         height="33.131844"
         x="18"
         y="-58.487843"
         ry="0.75843984"
         transform="rotate(90)" />
      <path
         id="rect480"
         style="fill:#ffd43b;fill-opacity:1;fill-rule:evenodd;stroke-width:1.00774"
         d="M 74.871586,18 C 74.444882,18 74.102,18.337637 74.102,18.757812 v 2.197266 0.398438 2.195312 c 0,0.420176 0.342882,0.757813 0.769586,0.757813 h 2.7033 c 1.016405,0 2.527114,-1.316652 2.527114,-2.953125 V 20.955078 C 80.102,19.318605 78.526935,18 77.510531,18 c -0.7514,0 -2.638945,0 -2.638945,0 z" />
      <path
         id="path530"
         style="fill:#ffd43b;fill-opacity:1;fill-rule:evenodd;stroke-width:1.00777"
         d="m 8.9725259,18 c 0.426704,0 0.769586,0.337656 0.769586,0.757855 v 2.197391 0.398461 2.195437 c 0,0.4202 -0.342882,0.757856 -0.769586,0.757856 h -2.7033 c -1.0164052,0 -2.5271142,-1.316727 -2.5271142,-2.953293 V 20.955246 C 3.7421117,19.31868 5.3171767,18 6.3335809,18 c 0.7514,0 2.638945,0 2.638945,0 z" />
    </g>
    <text
       xml:space="preserve"
       style="font-size:25.3543px;line-height:1.25;font-family:Gayathri;-inkscape-font-specification:Gayathri;stroke-width:0.950783"
       x="3.0819972"
       y="57.695751"
       id="text570"><tspan
         id="tspan568"
         x="3.0819972"
         y="57.695751"
         style="fill:#e0e0e0;fill-opacity:1;stroke-width:0.950783">python</tspan></text>
  </g>
</svg>
